<svg width="503" height="118" viewBox="0 0 503 118" fill="none" xmlns="http://www.w3.org/2000/svg">
<path id="logo-text" d="M153.038 84.243C150.546 84.243 148.194 83.7561 145.981 82.7834C143.768 81.8107 141.823 80.4882 140.145 78.8168C138.466 77.1455 137.144 75.1754 136.177 72.9048C135.211 70.635 134.728 68.1772 134.728 65.5331C134.728 62.9392 135.211 60.4945 136.177 58.1993C137.144 55.9041 138.466 53.9208 140.145 52.2494C141.823 50.5781 143.768 49.2556 145.981 48.2829C148.194 47.3101 150.546 46.8242 153.038 46.8242C155.429 46.8242 157.54 47.1976 159.371 47.9463C161.202 48.695 162.753 49.5184 164.025 50.4164C165.5 51.4639 166.797 52.6361 167.916 53.9331L164.101 57.6756C163.287 56.5781 162.347 55.5798 161.278 54.6818C160.362 53.9331 159.206 53.2477 157.807 52.6238C156.408 51.9999 154.818 51.6879 153.038 51.6879C151.309 51.6879 149.669 52.0377 148.117 52.7363C146.566 53.4349 145.193 54.4076 143.998 55.6545C142.803 56.9023 141.848 58.3742 141.136 60.0701C140.424 61.766 140.068 63.5876 140.068 65.5331C140.068 67.4795 140.424 69.3002 141.136 70.9962C141.848 72.693 142.803 74.1649 143.998 75.4118C145.193 76.6596 146.566 77.6323 148.117 78.3309C149.669 79.0295 151.309 79.3783 153.038 79.3783C154.818 79.3783 156.421 79.0664 157.845 78.4425C159.27 77.8195 160.49 77.1332 161.507 76.3845C162.677 75.4864 163.669 74.4891 164.482 73.3916L168.298 76.7588C167.128 78.156 165.78 79.4029 164.254 80.5014C162.932 81.4486 161.329 82.3098 159.447 83.0831C157.565 83.8563 155.429 84.243 153.038 84.243Z" fill="#242526"/>
<path id="logo-text" d="M187.8 84.4522C185.613 84.4522 183.604 84.0902 181.773 83.367C179.942 82.6438 178.377 81.621 177.08 80.2985C175.783 78.9769 174.766 77.367 174.028 75.4717C173.291 73.5754 172.923 71.455 172.923 69.1106V47.7812H178.263V69.1106C178.263 72.3029 179.191 74.8478 181.048 76.7441C182.904 78.6395 185.283 79.5876 188.181 79.5876C189.707 79.5876 191.119 79.3135 192.416 78.7642C193.712 78.2159 194.845 77.4427 195.811 76.4444C196.777 75.4461 197.528 74.2371 198.061 72.8144C198.595 71.3926 198.862 69.7837 198.862 67.9875V47.7812H204.203V76.2204C204.203 77.1676 204.534 77.9664 205.195 78.6149C205.856 79.2634 206.67 79.5876 207.636 79.5876C208.145 79.5876 208.603 79.5375 209.009 79.4382C209.214 79.3881 209.391 79.3135 209.544 79.2133V84.0779C209.34 84.1781 209.136 84.2528 208.933 84.3029C208.73 84.352 208.501 84.3899 208.247 84.4144C207.993 84.44 207.662 84.4522 207.255 84.4522C205.322 84.4522 203.834 84.1403 202.791 83.5164C201.749 82.8934 200.948 82.2071 200.389 81.4584C199.778 80.5603 199.396 79.563 199.244 78.4655C198.481 79.563 197.565 80.5603 196.497 81.4584C195.582 82.2071 194.399 82.8934 192.95 83.5164C191.5 84.1403 189.783 84.4522 187.8 84.4522Z" fill="#242526"/>
<path id="logo-text" d="M228.563 84.6855C226.071 84.6855 223.744 84.2242 221.582 83.3006C219.42 82.378 217.525 81.081 215.899 79.4097C214.271 77.7383 212.986 75.7551 212.046 73.4598C211.104 71.1646 210.634 68.6699 210.634 65.9757C210.634 63.2815 211.104 60.7868 212.046 58.4925C212.986 56.1973 214.271 54.214 215.899 52.5426C217.525 50.8713 219.42 49.5743 221.582 48.6507C223.744 47.7281 226.071 47.2668 228.563 47.2668C230.699 47.2668 232.543 47.5778 234.095 48.2017C235.646 48.8256 236.956 49.5119 238.024 50.2597C239.245 51.1577 240.287 52.156 241.152 53.2535V31.5508H246.492V83.9368H241.152V78.6988C240.287 79.7963 239.245 80.7936 238.024 81.6917C236.956 82.4404 235.646 83.1267 234.095 83.7497C232.543 84.3736 230.699 84.6855 228.563 84.6855ZM228.563 79.8209C230.191 79.8209 231.755 79.4721 233.255 78.7735C234.756 78.0749 236.09 77.1021 237.26 75.8543C238.43 74.6074 239.372 73.1356 240.083 71.4387C240.795 69.7428 241.152 67.9221 241.152 65.9757C241.152 64.0302 240.795 62.2086 240.083 60.5127C239.372 58.8168 238.43 57.3449 237.26 56.0971C236.09 54.8502 234.756 53.8774 233.255 53.1788C231.755 52.4802 230.191 52.1305 228.563 52.1305C226.834 52.1305 225.206 52.468 223.681 53.141C222.154 53.815 220.819 54.7623 219.674 55.9846C218.53 57.2078 217.627 58.6664 216.966 60.3633C216.305 62.0592 215.975 63.93 215.975 65.9757C215.975 68.0214 216.305 69.8922 216.966 71.589C217.627 73.2849 218.53 74.7445 219.674 75.9668C220.819 77.1891 222.154 78.1373 223.681 78.8103C225.206 79.4844 226.834 79.8209 228.563 79.8209Z" fill="#242526"/>
<path id="logo-text" d="M270.648 84.6855C268.156 84.6855 265.828 84.2242 263.667 83.3006C261.505 82.378 259.61 81.081 257.983 79.4097C256.355 77.7383 255.071 75.7551 254.13 73.4598C253.189 71.1646 252.719 68.6699 252.719 65.9757C252.719 63.2815 253.189 60.7868 254.13 58.4925C255.071 56.1973 256.355 54.214 257.983 52.5426C259.61 50.8713 261.505 49.5743 263.667 48.6507C265.828 47.7281 268.156 47.2668 270.648 47.2668C272.784 47.2668 274.628 47.5778 276.179 48.2017C277.73 48.8256 279.04 49.5119 280.109 50.2597C281.329 51.1577 282.371 52.156 283.236 53.2535V31.5508H288.577V83.9368H283.236V78.6988C282.371 79.7963 281.329 80.7936 280.109 81.6917C279.04 82.4404 277.73 83.1267 276.179 83.7497C274.628 84.3736 272.784 84.6855 270.648 84.6855ZM270.648 79.8209C272.276 79.8209 273.84 79.4721 275.34 78.7735C276.841 78.0749 278.175 77.1021 279.345 75.8543C280.515 74.6074 281.456 73.1356 282.168 71.4387C282.88 69.7428 283.236 67.9221 283.236 65.9757C283.236 64.0302 282.88 62.2086 282.168 60.5127C281.456 58.8168 280.515 57.3449 279.345 56.0971C278.175 54.8502 276.841 53.8774 275.34 53.1788C273.84 52.4802 272.276 52.1305 270.648 52.1305C268.918 52.1305 267.291 52.468 265.765 53.141C264.239 53.815 262.903 54.7623 261.759 55.9846C260.615 57.2078 259.712 58.6664 259.051 60.3633C258.389 62.0592 258.059 63.93 258.059 65.9757C258.059 68.0214 258.389 69.8922 259.051 71.589C259.712 73.2849 260.615 74.7445 261.759 75.9668C262.903 77.1891 264.239 78.1373 265.765 78.8103C267.291 79.4844 268.918 79.8209 270.648 79.8209Z" fill="#242526"/>
<path id="logo-text" d="M307.645 84.6855C304.593 84.6855 302.177 83.7875 300.397 81.9914C298.617 80.1952 297.727 77.6003 297.727 74.2085V31.5508H303.067V74.2085C303.067 77.9501 304.848 79.8209 308.407 79.8209C308.967 79.8209 309.501 79.7708 310.01 79.6715C310.519 79.5713 310.977 79.4466 311.383 79.2972C311.841 79.0977 312.248 78.8983 312.604 78.6988V83.5625C312.197 83.762 311.714 83.9624 311.154 84.1618C310.696 84.3112 310.162 84.436 309.552 84.5362C308.942 84.6354 308.306 84.6855 307.645 84.6855Z" fill="#242526"/>
<path id="logo-text" d="M330.748 99.4196C328.153 99.4196 325.902 99.0329 323.995 98.2597C322.088 97.4864 320.499 96.6261 319.227 95.678C317.752 94.5804 316.506 93.3326 315.488 91.9364L318.922 88.5682C319.786 89.6657 320.804 90.664 321.973 91.562C322.991 92.3098 324.224 92.9961 325.674 93.62C327.123 94.2439 328.815 94.5549 330.748 94.5549C332.375 94.5549 333.889 94.2685 335.287 93.6947C336.685 93.1209 337.894 92.3098 338.91 91.2624C339.928 90.2149 340.729 88.9548 341.314 87.483C341.899 86.0111 342.192 84.3776 342.192 82.5815V76.6694C341.429 77.7669 340.462 78.7642 339.292 79.6623C338.275 80.411 337.029 81.0841 335.554 81.6834C334.079 82.2818 332.349 82.5815 330.366 82.5815C328.179 82.5815 326.17 82.2194 324.339 81.4962C322.508 80.773 320.944 79.737 319.647 78.3899C318.35 77.0428 317.332 75.397 316.595 73.4506C315.857 71.5051 315.488 69.3101 315.488 66.8654V47.7812H320.829V66.8654C320.829 68.4621 321.096 69.9207 321.63 71.2432C322.164 72.5657 322.889 73.7124 323.804 74.6861C324.72 75.6588 325.801 76.4066 327.047 76.9313C328.293 77.455 329.628 77.7168 331.052 77.7168C332.579 77.7168 334.028 77.4294 335.402 76.8556C336.775 76.2828 337.957 75.4717 338.949 74.4243C339.941 73.3759 340.729 72.1167 341.314 70.6448C341.899 69.173 342.192 67.5385 342.192 65.7424V47.7812H347.532V82.5815C347.532 84.9259 347.087 87.1209 346.197 89.1666C345.307 91.2123 344.099 92.9961 342.573 94.5181C341.047 96.04 339.267 97.2368 337.233 98.1103C335.198 98.9828 333.037 99.4196 330.748 99.4196Z" fill="#242526"/>
<path id="logo-text" d="M354.898 47.5729H365.199V52.811H365.579C366.394 51.7134 367.334 50.7161 368.403 49.8181C369.319 49.0694 370.463 48.3831 371.836 47.7591C373.209 47.1362 374.812 46.8242 376.643 46.8242C378.524 46.8242 380.305 47.1863 381.983 47.9094C383.662 48.6326 385.124 49.6555 386.37 50.978C387.616 52.2995 388.595 53.9085 389.307 55.8048C390.019 57.7002 390.376 59.8205 390.376 62.1659V84.243H380.076V63.6623C380.076 61.4172 379.466 59.6712 378.245 58.4243C377.024 57.1765 375.346 56.5535 373.209 56.5535C370.92 56.5535 369.013 57.3135 367.487 58.8355C365.961 60.3575 365.199 62.3408 365.199 64.7854V84.243H354.898V47.5729Z" fill="#242526"/>
<path id="logo-text" d="M413.903 84.9917C411.156 84.9917 408.575 84.4925 406.159 83.4952C403.743 82.497 401.633 81.1253 399.827 79.3783C398.021 77.6323 396.61 75.6122 395.592 73.3169C394.575 71.0217 394.066 68.5525 394.066 65.9075C394.066 63.3135 394.575 60.8566 395.592 58.5358C396.61 56.216 398.008 54.1836 399.788 52.4366C401.569 50.6906 403.628 49.3189 405.968 48.3207C408.308 47.3233 410.825 46.8242 413.521 46.8242C416.115 46.8242 418.544 47.3101 420.808 48.2838C423.07 49.2565 425.042 50.5658 426.72 52.2126C428.399 53.8593 429.734 55.7925 430.725 58.0121C431.718 60.2327 432.213 62.6149 432.213 65.1597C432.213 65.8583 432.188 66.469 432.137 66.9927C432.086 67.5164 432.036 67.9787 431.985 68.3776C431.934 68.8767 431.883 69.3002 431.832 69.65H404.747C405.307 71.3459 406.388 72.8301 407.99 74.1025C409.592 75.3749 411.817 76.0111 414.666 76.0111C416.294 76.0111 417.718 75.8116 418.938 75.4127C420.159 75.0128 421.202 74.5392 422.066 73.99C423.033 73.3916 423.872 72.693 424.584 71.8952L429.924 79.0049C428.806 80.1025 427.432 81.0998 425.804 81.9978C424.431 82.7465 422.753 83.4328 420.769 84.0558C418.786 84.6797 416.497 84.9917 413.903 84.9917ZM421.532 62.1659C420.972 60.47 419.968 58.9849 418.519 57.7134C417.069 56.441 415.276 55.8048 413.14 55.8048C411.004 55.8048 409.21 56.441 407.761 57.7134C406.311 58.9849 405.307 60.47 404.747 62.1659H421.532Z" fill="#242526"/>
<path id="logo-text" d="M448.284 84.9917C445.69 84.9917 443.401 84.6419 441.417 83.9442C439.434 83.2457 437.755 82.4724 436.382 81.6235C434.754 80.6763 433.381 79.5532 432.262 78.2562L438.366 71.8952C439.128 72.693 440.019 73.3916 441.035 73.99C441.901 74.5392 442.944 75.0128 444.164 75.4127C445.385 75.8116 446.758 76.0111 448.284 76.0111C450.013 76.0111 451.208 75.7615 451.87 75.2624C452.531 74.7633 452.861 74.1403 452.861 73.3916C452.861 72.693 452.391 72.1069 451.45 71.6333C450.509 71.1587 449.326 70.6974 447.902 70.2484C446.479 69.7994 444.952 69.2757 443.324 68.6773C441.698 68.0779 440.171 67.3302 438.747 66.4321C437.323 65.5341 436.141 64.411 435.199 63.0639C434.259 61.7169 433.788 60.0455 433.788 58.0499C433.788 56.5535 434.119 55.1308 434.78 53.7837C435.441 52.4366 436.394 51.2398 437.64 50.1915C438.887 49.144 440.438 48.3207 442.295 47.7223C444.151 47.1239 446.275 46.8242 448.665 46.8242C451.056 46.8242 453.154 47.1239 454.959 47.7223C456.765 48.3207 458.278 48.9692 459.499 49.6678C460.924 50.5157 462.144 51.4393 463.161 52.4366L457.057 58.7986C456.447 58.2494 455.71 57.7503 454.846 57.3012C454.133 56.9023 453.255 56.5535 452.213 56.2538C451.17 55.9542 449.987 55.8048 448.665 55.8048C447.343 55.8048 446.376 56.0421 445.766 56.5157C445.155 56.9893 444.851 57.5007 444.851 58.0499C444.851 58.7485 445.321 59.3346 446.262 59.8082C447.203 60.2828 448.386 60.7441 449.81 61.1931C451.233 61.6422 452.76 62.1659 454.388 62.7643C456.015 63.3636 457.541 64.1114 458.965 65.0094C460.389 65.9075 461.571 67.0305 462.513 68.3776C463.453 69.7247 463.924 71.396 463.924 73.3916C463.924 74.9883 463.593 76.4847 462.932 77.8819C462.271 79.2791 461.279 80.5014 459.957 81.5488C458.635 82.5972 457.007 83.4328 455.074 84.0558C453.142 84.6797 450.878 84.9917 448.284 84.9917Z" fill="#242526"/>
<path id="logo-text" d="M482.717 84.2249C478.902 84.2249 475.85 83.065 473.561 80.7451C471.272 78.4244 470.128 75.0949 470.128 70.754V56.9088H463.644V47.5539H467.076C469.874 47.5539 471.272 46.0574 471.272 43.0636V36.3281H480.428V47.5539H488.821V56.9088H480.428V69.2575C480.428 70.9535 480.873 72.2504 481.763 73.1485C482.653 74.0466 483.861 74.4956 485.387 74.4956C486.506 74.4956 487.498 74.3708 488.363 74.1212C488.821 74.022 489.227 73.8972 489.583 73.7478V83.1018C488.973 83.3013 488.312 83.5017 487.6 83.7012C486.99 83.8505 486.264 83.9753 485.426 84.0755C484.586 84.1748 483.683 84.2249 482.717 84.2249Z" fill="#242526"/>
<path id="logo-form" fill-rule="evenodd" clip-rule="evenodd" d="M109.577 21.0505C109.577 21.0505 97.3027 21.5925 93.872 24.012C88.3468 27.9078 89.3383 36.5673 85.0929 37.6542C75.8547 29.0858 39.7175 9.12821 31.7239 5.05041C24.0971 11.127 60.7637 33.73 81.8561 40.6774C82.7703 40.9787 80.2779 45.0575 79.3597 44.764C47.2559 34.4912 10.9238 1 10.9238 1C13.5297 26.1556 28.4158 51.408 67.7205 60.3326C67.7205 60.3326 66.7269 73.0405 63.1456 87.6826C59.3583 103.172 58.418 114.498 58.0905 117.368C57.763 120.239 75.6045 109.085 73.6767 98.0562C71.1341 83.5109 78.116 84.7984 82.8768 80.2882C90.8733 72.7118 107.709 62.4684 109.332 33.3113C109.332 33.3113 112.285 17.2936 138.369 15.6568C138.369 15.6568 131.958 10.947 109.577 21.0505Z" fill="#7868C7" stroke="#7868C7" stroke-width="0.00831603" stroke-miterlimit="1.5" stroke-linecap="round" stroke-linejoin="round"/>
</svg>
