<svg width="282" height="282" viewBox="0 0 282 282" fill="none" xmlns="http://www.w3.org/2000/svg">
<rect id="app-icon-fill" x="0.5" y="0.5" width="281" height="281" rx="72.5" fill="#282A2B"/>
<path id="app-icon-logo" fill-rule="evenodd" clip-rule="evenodd" d="M185.317 90.0396C185.317 90.0396 168.947 90.7626 164.371 93.9896C157.001 99.1857 158.324 110.735 152.661 112.185C140.34 100.757 92.1409 74.138 81.4794 68.6992C71.3069 76.804 120.212 106.951 148.344 116.217C149.564 116.619 146.239 122.059 145.015 121.668C102.196 107.966 53.7368 63.2969 53.7368 63.2969C57.2125 96.8487 77.0671 130.53 129.491 142.433C129.491 142.433 128.165 159.382 123.389 178.912C118.337 199.571 117.083 214.677 116.646 218.505C116.209 222.334 140.006 207.458 137.435 192.748C134.044 173.348 143.356 175.065 149.706 169.049C160.371 158.944 182.826 145.282 184.99 106.393C184.99 106.393 188.93 85.0288 223.72 82.8457C223.72 82.8457 215.169 76.5639 185.317 90.0396V90.0396Z" fill="white" stroke="white" stroke-width="0.0110917" stroke-miterlimit="1.5" stroke-linecap="round" stroke-linejoin="round"/>
<rect id="app-icon-outline" x="0.5" y="0.5" width="281" height="281" rx="72.5" stroke="#343738"/>
</svg>
